<svg xmlns="http://www.w3.org/2000/svg" viewBox="0 0 200 220" width="200" height="220">
  <path d="M100 8 L184 40 V108 C184 156 148 192 100 212 C52 192 16 156 16 108 V40 Z" fill="#17532f"/>
  <path d="M100 20 L172 48 V108 C172 148 142 178 100 196 C58 178 28 148 28 108 V48 Z" fill="#1f6f43"/>
  <g transform="translate(38,84)" fill="#ffffff">
    <rect x="0" y="20" width="80" height="26" rx="3"/>
    <path d="M80 20 H108 L124 40 V46 H80 Z"/>
    <circle cx="26" cy="50" r="12" fill="#17532f" stroke="#ffffff" stroke-width="5"/>
    <circle cx="98" cy="50" r="12" fill="#17532f" stroke="#ffffff" stroke-width="5"/>
    <rect x="88" y="26" width="16" height="12" fill="#1f6f43"/>
  </g>
  <text x="100" y="176" text-anchor="middle" font-family="Arial, Helvetica, sans-serif" font-size="24" font-weight="700" fill="#ffffff">CPM FROTAS</text>
</svg>
